#!OML:ASF F:\VICON\USERDATA\INSTALL\rory3\rory3.ASF
:FULLY-SPECIFIED
:DEGREES
824
root -3.78813 17.4366 8.37798 13.0049 -6.79449 -1.44384
lowerback -1.28669 0.091161 5.55234
upperback -4.68774 0.173624 -0.236706
thorax -4.11741 -0.130442 -3.3602
lowerneck -15.0028 -3.95132 -8.47481
upperneck 23.1711 -4.73283 5.28958
head 10.2037 -2.33546 2.66253
rclavicle -9.43606e-015 2.09718e-014
rhumerus -43.9417 11.7621 -87.3639
rradius 52.4445
rwrist 12.6627
rhand -25.2923 -49.3525
rfingers 7.12502
rthumb 1.22929 -79.3287
lclavicle -9.43606e-015 2.09718e-014
lhumerus -44.3909 -14.4454 80.7345
lradius 76.0961
lwrist -2.069
lhand -33.5807 -46.003
lfingers 7.12502
lthumb -6.77479 -16.1314
rfemur -25.3454 9.54624 27.6455
rtibia 35.2969
rfoot -9.13573 -13.7413
rtoes -8.62697
lfemur -74.8779 22.1483 -9.56182
ltibia 126.1
lfoot -19.0125 -2.64206
ltoes -9.91004
825
root -3.79723 17.6292 8.40569 13.0643 -7.28034 -1.24961
lowerback -1.35957 0.320859 5.40982
upperback -4.68445 0.468556 -0.419636
thorax -4.04171 0.0205063 -3.47632
lowerneck -15.1459 -4.0647 -8.50079
upperneck 22.9609 -4.90178 5.43507
head 10.1731 -2.39474 2.6914
rclavicle 1.51263e-015 -1.49089e-015
rhumerus -44.0536 12.0691 -87.6119
rradius 52.4053
rwrist 12.1445
rhand -25.4871 -48.6367
rfingers 7.12502
rthumb 1.04108 -78.6139
lclavicle 1.51263e-015 -1.49089e-015
lhumerus -44.4604 -14.893 80.8013
lradius 76.0488
lwrist -1.32948
lhand -33.5106 -45.6579
lfingers 7.12502
lthumb -6.70718 -15.7841
rfemur -24.3983 9.89897 27.1588
rtibia 33.2166
rfoot -6.71729 -12.5171
rtoes -9.88076
lfemur -74.9982 23.7135 -9.50169
ltibia 126.847
lfoot -19.2287 -3.07422
ltoes -9.38602
826
root -3.80431 17.8178 8.42102 12.8572 -7.53483 -0.890057
lowerback -0.986648 0.377505 5.0796
upperback -4.61162 0.55524 -0.577243
thorax -4.16662 0.0710684 -3.45929
lowerneck -15.705 -4.08459 -8.46105
upperneck 23.0617 -4.89394 5.43323
head 10.3146 -2.37897 2.67979
rclavicle -8.62539e-015 -1.57537e-014
rhumerus -44.043 12.5236 -87.8472
rradius 52.452
rwrist 11.6792
rhand -24.9612 -48.8232
rfingers 7.12502
rthumb 1.54906 -78.7973
lclavicle -8.62539e-015 -1.57537e-014
lhumerus -44.448 -15.0585 80.8294
lradius 75.8862
lwrist -0.49203
lhand -33.3939 -45.2774
lfingers 7.12502
lthumb -6.59452 -15.4001
rfemur -23.3385 9.86596 26.5927
rtibia 31.3597
rfoot -4.39239 -11.1594
rtoes -12.8479
lfemur -75.0096 24.7425 -9.50233
ltibia 127.617
lfoot -19.2605 -3.54046
ltoes -8.38758
827
root -3.81291 17.9908 8.43153 12.9517 -7.50459 -0.551186
lowerback -0.968309 0.329131 4.7508
upperback -4.63167 0.483337 -0.684346
thorax -4.204 0.0439301 -3.38424
lowerneck -16.0779 -4.07478 -8.5544
upperneck 23.1154 -4.8726 5.62117
head 10.4112 -2.34962 2.76262
rclavicle 6.66395e-015 3.18055e-015
rhumerus -44.0981 12.878 -88.03
rradius 52.4472
rwrist 11.6536
rhand -24.5648 -48.6841
rfingers 7.12502
rthumb 1.9319 -78.6551
lclavicle 6.66395e-015 3.18055e-015
lhumerus -44.679 -15.0175 80.8402
lradius 75.8347
lwrist 0.12841
lhand -33.1597 -45.2218
lfingers 7.12502
lthumb -6.36843 -15.3375
rfemur -22.6865 9.44142 26.1126
rtibia 29.7001
rfoot -2.08667 -9.75685
rtoes -19.5019
lfemur -75.6007 25.5222 -9.54755
ltibia 128.521
lfoot -19.2669 -3.92523
ltoes -8.36647
828
root -3.81995 18.1613 8.44012 13.2933 -7.09855 -0.257229
lowerback -1.29055 0.189611 4.61269
upperback -4.69671 0.275335 -0.808956
thorax -4.10831 -0.0563526 -3.42931
lowerneck -15.6883 -4.02532 -8.91356
upperneck 22.4593 -4.88657 6.3015
head 10.1278 -2.31164 3.06094
rclavicle 4.47576e-015 1.2424e-016
rhumerus -44.0795 13.1742 -88.2646
rradius 52.2049
rwrist 11.479
rhand -24.9171 -47.7039
rfingers 7.12502
rthumb 1.59167 -77.6777
lclavicle 4.47576e-015 1.2424e-016
lhumerus -44.9734 -14.9972 80.7622
lradius 75.7159
lwrist 0.129815
lhand -32.9284 -44.7326
lfingers 7.12502
lthumb -6.14511 -14.8417
rfemur -22.3539 8.55209 25.7523
rtibia 28.1688
rfoot 0.609866 -8.2424
rtoes -25.1455
lfemur -76.72 25.694 -9.69495
ltibia 129.458
lfoot -18.9921 -4.23591
ltoes -7.95427
829
root -3.82014 18.3397 8.45401 13.5267 -6.91886 -0.15901
lowerback -1.53559 0.110477 4.70636
upperback -4.71133 0.156158 -0.875518
thorax -3.99686 -0.11843 -3.54781
lowerneck -15.3005 -3.9583 -9.21875
upperneck 21.7924 -4.85079 6.84229
head 9.83473 -2.26353 3.30415
rclavicle -1.71607e-015 -1.00883e-014
rhumerus -43.9938 13.6736 -88.5172
rradius 51.8624
rwrist 11.1636
rhand -24.9401 -47.3034
rfingers 7.12502
rthumb 1.56944 -77.2774
lclavicle -1.71607e-015 -1.00883e-014
lhumerus -45.11 -14.8941 80.6759
lradius 75.285
lwrist -0.0336783
lhand -32.8986 -44.3026
lfingers 7.12502
lthumb -6.11634 -14.4109
rfemur -21.9494 7.80647 25.5285
rtibia 26.6109
rfoot 4.10609 -6.25467
rtoes -26.8705
lfemur -77.4259 26.0684 -9.64038
ltibia 130.338
lfoot -18.8776 -4.53556
ltoes -7.02002
830
root -3.81524 18.5216 8.46894 13.5888 -7.09421 -0.109913
lowerback -1.55269 0.115364 4.79608
upperback -4.70104 0.160898 -0.919485
thorax -3.97665 -0.119684 -3.6441
lowerneck -16.4621 -4.10352 -8.60199
upperneck 22.6481 -4.92111 5.91361
head 10.3278 -2.33232 2.85892
rclavicle 6.74004e-015 1.13556e-014
rhumerus -43.9285 14.2282 -88.7172
rradius 51.5787
rwrist 11.241
rhand -24.5426 -47.4544
rfingers 7.12502
rthumb 1.95331 -77.4252
lclavicle 6.74004e-015 1.13556e-014
lhumerus -45.2368 -14.6804 80.606
lradius 74.7381
lwrist -0.136647
lhand -32.9152 -44.5254
lfingers 7.12502
lthumb -6.13235 -14.6341
rfemur -21.4915 7.31507 25.2516
rtibia 25.0485
rfoot 7.33265 -4.45093
rtoes -29.0021
lfemur -77.5584 26.9274 -9.48566
ltibia 131.162
lfoot -19.1168 -4.72446
ltoes -6.56111
831
root -3.80924 18.71 8.50506 13.2188 -7.90077 0.057835
lowerback -1.24864 0.322294 4.68624
upperback -4.61555 0.446248 -1.0477
thorax -4.03012 0.0247157 -3.72272
lowerneck -15.5511 -3.83181 -9.03495
upperneck 21.6975 -4.64458 6.64749
head 9.81977 -2.16898 3.22843
rclavicle 2.0926e-014 6.1996e-015
rhumerus -44.0046 14.5976 -88.904
rradius 51.3304
rwrist 11.5624
rhand -24.6743 -46.9729
rfingers 7.12502
rthumb 1.82613 -76.9448
lclavicle 2.0926e-014 6.1996e-015
lhumerus -45.6528 -14.5139 80.5989
lradius 74.3941
lwrist -0.555647
lhand -32.9637 -43.9289
lfingers 7.12502
lthumb -6.17916 -14.0391
rfemur -20.5304 7.23123 24.7284
rtibia 23.3959
rfoot 10.613 -3.21936
rtoes -28.1379
lfemur -76.3856 28.6089 -9.22923
ltibia 131.73
lfoot -19.6983 -4.7848
ltoes -6.30602
832
root -3.81105 18.8804 8.51957 13.2517 -8.40009 0.278406
lowerback -1.06918 0.42805 4.38949
upperback -4.71827 0.591219 -1.12333
thorax -4.22471 0.0996292 -3.63992
lowerneck -16.1902 -3.9029 -8.58822
upperneck 22.3007 -4.66347 5.96472
head 10.1297 -2.2094 2.90995
rclavicle -2.76047e-014 4.34841e-016
rhumerus -44.0706 14.8848 -89.0827
rradius 51.0336
rwrist 11.5891
rhand -24.9782 -46.4057
rfingers 7.12502
rthumb 1.53262 -76.3799
lclavicle -2.76047e-014 4.34841e-016
lhumerus -46.1417 -14.3389 80.6511
lradius 74.111
lwrist -1.07045
lhand -33.1394 -42.6199
lfingers 7.12502
lthumb -6.34882 -12.7351
rfemur -20.1836 7.25475 24.1226
rtibia 21.8204
rfoot 13.9916 -2.78162
rtoes -25.9778
lfemur -76.2279 30.0219 -9.28054
ltibia 132.389
lfoot -19.7566 -4.90698
ltoes -6.43057
833
root -3.81417 19.0453 8.53169 13.2524 -8.86949 0.439948
lowerback -0.97958 0.471435 4.11319
upperback -4.6589 0.647336 -1.14517
thorax -4.20821 0.139261 -3.50876
lowerneck -16.5163 -3.84476 -8.53733
upperneck 22.3413 -4.55128 5.89786
head 10.1938 -2.15568 2.89092
rclavicle 1.86066e-014 -1.89094e-014
rhumerus -43.7984 15.394 -89.2628
rradius 50.6436
rwrist 11.3185
rhand -25.024 -46.355
rfingers 7.12502
rthumb 1.48834 -76.3296
lclavicle 1.86066e-014 -1.89094e-014
lhumerus -46.3042 -13.9968 80.5954
lradius 73.5712
lwrist -1.48835
lhand -33.305 -42.2645
lfingers 7.12502
lthumb -6.5087 -12.3845
rfemur -19.822 7.23842 23.6049
rtibia 20.3566
rfoot 16.942 -1.96594
rtoes -24.8267
lfemur -75.9375 31.4092 -9.20498
ltibia 133.052
lfoot -19.8234 -5.06773
ltoes -6.20302
834
root -3.81516 19.1993 8.54822 13.3947 -9.36042 0.470451
lowerback -1.04061 0.524178 4.00414
upperback -4.65383 0.71348 -1.14215
thorax -4.16258 0.177568 -3.44497
lowerneck -16.356 -3.67052 -8.72183
upperneck 21.9768 -4.33182 6.20754
head 10.0255 -2.03504 3.06001
rclavicle -6.69656e-015 -1.55301e-014
rhumerus -43.5002 16.2202 -89.5703
rradius 50.0378
rwrist 10.9952
rhand -25.1963 -45.8248
rfingers 7.12502
rthumb 1.32199 -75.8004
lclavicle -6.69656e-015 -1.55301e-014
lhumerus -46.3824 -13.6977 80.5177
lradius 72.7629
lwrist -1.81844
lhand -33.2948 -42.5048
lfingers 7.12502
lthumb -6.49882 -12.6245
rfemur -19.6844 7.16228 23.251
rtibia 19.192
rfoot 19.0797 -0.740281
rtoes -23.9847
lfemur -75.728 32.9643 -9.06146
ltibia 133.75
lfoot -19.9409 -5.22483
ltoes -5.95367
835
root -3.81295 19.3334 8.56327 13.7519 -9.85403 0.134623
lowerback -1.1262 0.642491 4.32791
upperback -4.83094 0.87689 -1.08142
thorax -4.28382 0.241603 -3.56862
lowerneck -17.7777 -3.78073 -7.74656
upperneck 23.3511 -4.32728 4.77678
head 10.7385 -2.10357 2.38689
rclavicle -1.07235e-014 4.4975e-015
rhumerus -43.5701 17.0975 -89.9855
rradius 49.5996
rwrist 10.6023
rhand -25.4949 -44.9149
rfingers 7.12502
rthumb 1.0336 -74.8921
lclavicle -1.07235e-014 4.4975e-015
lhumerus -46.6939 -13.5459 80.5241
lradius 72.0451
lwrist -2.01711
lhand -33.2607 -42.4019
lfingers 7.12502
lthumb -6.46587 -12.5206
rfemur -20.0703 6.99965 23.3426
rtibia 18.7995
rfoot 20.143 0.0691275
rtoes -23.024
lfemur -75.8681 34.9804 -8.57848
ltibia 134.597
lfoot -20.1202 -5.71617
ltoes -6.04877
